<?xml version="1.0" encoding="utf-8"?>
<!-- Generator: Adobe Illustrator 26.0.1, SVG Export Plug-In . SVG Version: 6.00 Build 0)  -->
<svg version="1.1" id="Layer_1" xmlns="http://www.w3.org/2000/svg" xmlns:xlink="http://www.w3.org/1999/xlink" x="0px" y="0px"
	 viewBox="0 0 500 500" style="enable-background:new 0 0 500 500;" xml:space="preserve">
<style type="text/css">
	.st0{fill:#53DC72;}
</style>
<g id="Jet_Engine">
	<path class="st0" d="M149.21,286.91c35.03,0,63.48-38.46,63.48-85.85c0-47.44-28.45-85.9-63.48-85.9
		c-35.04,0-63.48,38.46-63.48,85.9C85.73,248.45,114.17,286.91,149.21,286.91z M110.29,159.41c2.82,5.45,7.64,12.29,15.52,16.97
		c0.62,0.37,1.3,0.54,1.97,0.54c3.93,0,5.36-5.2,1.98-7.21c-8.4-4.98-12.61-13.31-14.36-17.78c7.32-9.23,16.69-15.49,27.1-17.4
		c-1.44,6.53-2.18,16.65,2.38,28.32c0.77,1.97,2.99,2.98,5.01,2.2c1.99-0.78,2.98-3.02,2.2-5.02c-4.51-11.57-2.91-21.14-1.45-26.09
		c11.33,0.44,21.72,5.96,29.92,15.01c-4.32,3.34-10.95,10.2-15.06,22.89c-0.81,2.5,1.06,5.07,3.69,5.07c1.63,0,3.15-1.04,3.69-2.68
		c3.61-11.12,9.18-16.69,12.46-19.18c7.45,10.71,12.32,24.7,13.3,40.24c-5.12-1.64-13.28-2.64-22.68,2.33
		c-3.57,1.88-2.22,7.3,1.81,7.3c0.61,0,1.23-0.14,1.8-0.45c9.18-4.84,16.51-2.16,19.19-0.82c-0.43,15.33-4.61,29.35-11.4,40.37
		c-2.69-5.62-7.64-13.23-16.19-18.3c-1.84-1.09-4.22-0.49-5.31,1.35c-1.09,1.84-0.49,4.22,1.35,5.31c9.23,5.48,13.4,15,14.81,18.99
		c-7.53,8.99-17.06,14.99-27.61,16.48c1.49-6.52,2.31-16.76-2.31-28.6c-0.78-1.99-3.02-2.98-5.02-2.2c-1.99,0.78-2.98,3.02-2.2,5.02
		c4.48,11.48,2.94,20.98,1.49,25.97c-11.05-0.85-21.14-6.53-29.09-15.58c4.3-3.56,10.35-10.33,14.2-22.19
		c0.66-2.04-0.45-4.22-2.49-4.88c-2.04-0.66-4.22,0.46-4.88,2.49c-3.26,10.05-8.17,15.62-11.51,18.44
		C96.04,221.79,95.24,185.16,110.29,159.41z"/>
	<path class="st0" d="M266.51,135.07c36.22,8.99,52.73,17.53,55.11,17.53c4.24,0,5.38-5.88,1.45-7.47
		c-17.07-6.89-35.47-12.81-54.69-17.58c-2.05-0.51-4.18,0.75-4.69,2.83C263.17,132.45,264.43,134.55,266.51,135.07z"/>
	<path class="st0" d="M191.77,122.31c27.44,2.86,40.99,5.86,42.49,5.86c1.85,0,3.48-1.32,3.81-3.2c0.37-2.11-1.03-4.12-3.14-4.49
		c-13.48-2.38-27.73-4.36-42.36-5.88c-2.09-0.17-4.04,1.32-4.26,3.45C188.1,120.18,189.65,122.09,191.77,122.31z"/>
	<path class="st0" d="M371.28,209.29c-0.13,0.75-0.21,1.56-0.37,2.28c-2.07,9.43-7.41,15.72-15.31,21.01
		c-1.78,1.19-2.26,3.6-1.06,5.38c1.19,1.78,3.6,2.25,5.37,1.06c3.86-2.58,7.06-5.3,9.7-8.23h10.51c8.77,0,15.91-7.14,15.91-15.91
		v-5.76c5.13-0.8,9.31-1.99,13.99-4.31c5.72-2.83,5.71-11.12-0.02-13.93c-4.4-2.16-9.11-3.61-13.97-4.35v-3.86
		c0-8.77-7.13-15.91-15.91-15.91h-16.34c-1.92-1.62-3.83-3.08-5.63-4.31c-1.77-1.2-4.18-0.74-5.38,1.02
		c-1.21,1.77-0.75,4.18,1.01,5.39C367.7,178.34,374.29,190.54,371.28,209.29z M380.12,174.5c4.5,0,8.16,3.66,8.16,8.16v32.21
		c0,4.5-3.66,8.16-8.16,8.16h-5.14c7.11-13.66,6.61-34.97-3.65-48.53H380.12z"/>
	<path class="st0" d="M264.81,270.32c0.44,1.76,2.02,2.94,3.76,2.94c2.27,0,33.15-8.31,58.51-18.41c1.99-0.79,2.96-3.05,2.16-5.03
		c-0.79-1.99-3.05-2.95-5.03-2.16c-17.49,6.97-36.52,13.01-56.57,17.97C265.56,266.15,264.3,268.25,264.81,270.32z"/>
	<path class="st0" d="M192.63,278.97c-2.13,0.25-3.65,2.18-3.4,4.3c0.26,2.19,2.28,3.66,4.3,3.39c14.94-1.77,29.42-3.94,43.04-6.45
		c2.1-0.39,3.5-2.41,3.11-4.51c-0.39-2.1-2.4-3.48-4.51-3.11C221.72,275.08,207.4,277.22,192.63,278.97z"/>
	<path class="st0" d="M142.76,215.88c8.19,0,14.83-6.64,14.83-14.84c0-8.19-6.64-14.83-14.83-14.83c-8.19,0-32.16,6.64-32.16,14.83
		C110.6,209.24,134.56,215.88,142.76,215.88z"/>
	<path class="st0" d="M90.86,330.96h318.28c5.54,0,10.05-4.51,10.05-10.05v-17.53c0-5.54-4.51-10.05-10.05-10.05h-67.92
		c9.7-102.56,5.15-159.15-13.6-168.03c-7.13-3.38-14.08,0.72-17.06,3.67c-1.51,1.5-1.51,3.93-0.02,5.45
		c1.49,1.53,3.95,1.54,5.47,0.06c0.18-0.17,4.31-4.09,8.33-2.16c7.05,3.4,21.94,26,9.1,161.01h-78.31
		c9.91-118.26,5.07-182.49-14.41-190.85c-7-3.01-13.6,1.5-16.38,4.64c-1.41,1.59-1.27,4.02,0.32,5.44c1.6,1.43,4.05,1.29,5.46-0.29
		c0.04-0.04,3.93-4.25,7.57-2.67c5.71,2.49,23.14,23.21,9.65,183.72H90.86c-5.54,0-10.05,4.51-10.05,10.05v17.53
		C80.81,326.45,85.32,330.96,90.86,330.96z M88.56,303.38c0-1.27,1.03-2.3,2.3-2.3h318.28c1.27,0,2.31,1.03,2.31,2.3v17.53
		c0,1.27-1.03,2.3-2.31,2.3H90.86c-1.27,0-2.3-1.03-2.3-2.3V303.38z"/>
	<path class="st0" d="M112.03,338.81c-2.14,0-3.87,1.74-3.87,3.87v42.43c0,7.4,6.01,13.41,13.41,13.41h16.79
		c7.4,0,13.41-6.02,13.41-13.41v-42.43c0-2.14-1.74-3.87-3.87-3.87c-2.14,0-3.87,1.74-3.87,3.87v42.43c0,3.12-2.54,5.67-5.67,5.67
		h-16.79c-3.12,0-5.66-2.54-5.66-5.67v-42.43C115.91,340.54,114.17,338.81,112.03,338.81z"/>
	<path class="st0" d="M232.05,338.81c-2.14,0-3.87,1.74-3.87,3.87v42.43c0,7.4,6.01,13.41,13.41,13.41h16.79
		c7.4,0,13.41-6.02,13.41-13.41v-42.43c0-2.14-1.74-3.87-3.87-3.87c-2.14,0-3.87,1.74-3.87,3.87v42.43c0,3.12-2.54,5.67-5.67,5.67
		h-16.79c-3.12,0-5.66-2.54-5.66-5.67v-42.43C235.93,340.54,234.19,338.81,232.05,338.81z"/>
	<path class="st0" d="M354.93,338.81c-2.14,0-3.87,1.74-3.87,3.87v42.43c0,7.4,6.02,13.41,13.41,13.41h16.79
		c7.4,0,13.41-6.02,13.41-13.41v-11.25h4.61c3.15,0,5.65-2.3,6.22-5.28c5.24,3.41,5.94,14.94,5.94,21.21c0,2.14,1.74,3.87,3.87,3.87
		c2.14,0,3.87-1.74,3.87-3.87c0-11.69-2.22-26.8-13.59-29.49c-0.36-3.22-3-5.76-6.32-5.76h-4.61v-11.86c0-2.14-1.74-3.87-3.87-3.87
		s-3.87,1.74-3.87,3.87v42.43c0,3.12-2.54,5.67-5.67,5.67h-16.79c-3.12,0-5.67-2.54-5.67-5.67v-42.43
		C358.81,340.54,357.07,338.81,354.93,338.81z"/>
	<path class="st0" d="M295.84,176.93c-2.14,0-3.87,1.74-3.87,3.87v1.38c-5.9,1.69-10.24,7.07-10.24,13.51
		c0,6.44,4.34,11.82,10.24,13.51v1.38c0,2.14,1.74,3.87,3.87,3.87s3.87-1.74,3.87-3.87v-1.39c5.9-1.69,10.24-7.07,10.24-13.51
		c0-6.44-4.34-11.82-10.24-13.51v-1.38C299.72,178.66,297.98,176.93,295.84,176.93z"/>
</g>
</svg>
