<?xml version="1.0" encoding="utf-8"?>
<!-- Generator: Adobe Illustrator 26.0.1, SVG Export Plug-In . SVG Version: 6.00 Build 0)  -->
<svg version="1.1" id="Layer_1" xmlns="http://www.w3.org/2000/svg" xmlns:xlink="http://www.w3.org/1999/xlink" x="0px" y="0px"
	 viewBox="0 0 500 500" style="enable-background:new 0 0 500 500;" xml:space="preserve">
<style type="text/css">
	.st0{fill:#53DC72;}
</style>
<g>
	<g>
		<path class="st0" d="M304.5,328.27h36.33v60.55H304.5V328.27z"/>
	</g>
	<g>
		<g>
			<path class="st0" d="M268.17,406.98h-60.55v-66.61h60.55V406.98z"/>
		</g>
	</g>
	<g>
		<path class="st0" d="M425.6,400.93v-230.1h-14.27c12.38-10,20.33-25.28,20.33-42.39c0-21.14-8.24-41.01-23.19-55.96l-9.73-9.73
			l-3.71,11.08c-3.27,9.82-8.87,18.87-16.19,26.19l-1.03,1.04l-17.25-23l-14.18,8.51c-14.85,8.91-23.72,24.63-23.72,42.07v0.84
			c0,14.28,5.56,27.72,15.67,37.82c1.25,1.25,2.56,2.43,3.91,3.55h-13.52v133.22h-12.11v-30.28c0-30.42-20.53-56.09-48.44-64.03
			v-11.66c0-41.74-33.95-75.69-75.69-75.69c-40.72,0-73.93,32.34-75.54,72.66h-12.26v30.91c-24.97,11.51-42.39,36.72-42.39,65.97
			c0,30.25,18.6,56.22,44.94,67.14l-7.61,41.85H62.28v36.33h375.43v-36.33H425.6z M377.16,138.53l9.69,12.92
			c1.59,2.12,2.42,4.63,2.42,7.27c0,6.68-5.43,12.11-12.11,12.11c-6.68,0-12.11-5.43-12.11-12.11c0-2.64,0.84-5.15,2.42-7.27
			L377.16,138.53z M387.41,108.58c6.77-6.76,12.29-14.79,16.22-23.51c10.31,12.1,15.92,27.3,15.92,43.37
			c0,14.58-7.41,27.47-18.66,35.1c0.32-1.56,0.49-3.17,0.49-4.83c0-5.2-1.72-10.37-4.84-14.53l-19.17-25.56L387.41,108.58z
			 M334.77,129.46v-0.84c0-13.14,6.67-24.98,17.83-31.68l4.82-2.89l18.98,25.3l-18.62,24.84c-3.12,4.17-4.84,9.33-4.84,14.53
			c0,1.87,0.26,3.68,0.67,5.43c-2.39-1.56-4.64-3.37-6.72-5.43C339.08,150.9,334.77,140.51,334.77,129.46z M376.14,182.94h0.01h1.01
			h36.33v12.11h-72.66v-12.11H376.14z M340.83,207.16h72.66v193.77h-48.44v-96.89h-24.22V207.16z M352.94,400.93h-60.55v-84.77
			h60.55V400.93z M280.28,304.04v96.89H195.5v-68.92c7.64-11.5,12.11-25.27,12.11-40.08c0-4.14-0.43-8.16-1.1-12.11h97.98v24.22
			H280.28z M141,364.29c3.42-0.28,6.76-0.81,10.02-1.54l6.95,38.18H141V364.29z M170.28,400.93l-7.61-41.85
			c7.67-3.18,14.64-7.67,20.72-13.13v54.99L170.28,400.93z M153.27,195.05c1.56-20.29,18.52-36.33,39.21-36.33
			c21.7,0,39.36,17.66,39.36,39.36v11.68c-18.11,5.18-33.44,17.88-41.76,34.96c-6.79-7.92-15.26-14.34-24.85-18.75v-30.91H153.27z
			 M194.28,279.82H75.62c0.86-4.21,2.18-8.26,3.87-12.11h110.92C192.1,271.56,193.43,275.61,194.28,279.82z M304.14,267.71H203.37
			c-1.38-3.89-3.05-7.64-5.04-11.2c7.36-22.04,28.24-37.25,51.66-37.25C278,219.27,301.12,240.51,304.14,267.71z M192.47,134.49
			c35.06,0,63.58,28.52,63.58,63.58v9.39c-2-0.18-4.01-0.31-6.06-0.31c-2.03,0-4.05,0.12-6.06,0.3v-9.38
			c0-28.38-23.09-51.47-51.47-51.47c-27.36,0-49.74,21.48-51.32,48.44h-12.11C130.64,161.4,158.44,134.49,192.47,134.49
			L192.47,134.49z M116.78,207.16h36.33v14.5c-5.82-1.51-11.89-2.39-18.17-2.39c-6.28,0-12.35,0.88-18.17,2.39V207.16z
			 M134.95,231.38c19.75,0,37.26,9.55,48.33,24.22H86.62C97.68,240.93,115.2,231.38,134.95,231.38z M74.4,291.93H195.5
			c0,33.39-27.16,60.55-60.55,60.55S74.4,325.32,74.4,291.93z M118.87,362.74c3.26,0.74,6.61,1.27,10.02,1.54v36.64h-16.97
			L118.87,362.74z M425.6,425.15H74.4v-12.11H425.6V425.15z"/>
		<path class="st0" d="M304.5,328.27h12.11v12.11H304.5V328.27z"/>
		<path class="st0" d="M328.72,328.27h12.11v12.11h-12.11V328.27z"/>
		<path class="st0" d="M304.5,352.49h12.11v12.11H304.5V352.49z"/>
		<path class="st0" d="M328.72,352.49h12.11v12.11h-12.11V352.49z"/>
		<path class="st0" d="M328.72,376.71h12.11v12.11h-12.11V376.71z"/>
		<path class="st0" d="M304.5,376.71h12.11v12.11H304.5V376.71z"/>
	</g>
	<g>
		<g>
			<path class="st0" d="M401.38,291.93h-48.44v-72.66h48.44V291.93z"/>
		</g>
	</g>
</g>
</svg>
