<?xml version="1.0" encoding="utf-8"?>
<!-- Generator: Adobe Illustrator 26.0.1, SVG Export Plug-In . SVG Version: 6.00 Build 0)  -->
<svg version="1.1" id="Layer_1" xmlns="http://www.w3.org/2000/svg" xmlns:xlink="http://www.w3.org/1999/xlink" x="0px" y="0px"
	 viewBox="0 0 500 500" style="enable-background:new 0 0 500 500;" xml:space="preserve">
<style type="text/css">
	.st0{fill:#53DC72;}
</style>
<g>
	<path class="st0" d="M392.15,246.19h39.61c3.46,0,6.27-2.81,6.27-6.27c0.08-70.22-38.94-134.63-101.21-167.08
		c-1.47-0.76-3.18-0.92-4.76-0.44c-1.59,0.49-2.92,1.6-3.7,3.07l-18.55,35.47c-40.45-18.85-87.43-17.48-126.72,3.7l-20.24-34.09
		c-1.77-2.98-5.61-3.96-8.59-2.19c-60.39,35.81-95.85,102.24-92,172.34c0.11,1.65,0.85,3.2,2.07,4.32c1.15,1.04,2.65,1.62,4.2,1.63
		h0.38l39.86-2.19c4.31,42.81,27.86,81.35,63.99,104.72l-20.05,34.09c-1.72,3-0.71,6.82,2.26,8.59
		c29.12,17.06,62.26,26.04,96.01,26.01h2.01c34.42-0.51,68.04-10.39,97.26-28.58c1.43-0.86,2.45-2.26,2.82-3.89
		c0.36-1.63,0.07-3.34-0.81-4.76l-21.12-33.9C367.7,331.53,390.31,290.58,392.15,246.19z M336.5,86.95
		c53.12,30.12,86.77,85.68,88.87,146.71H328.1c-1.95-24.81-15.55-47.23-36.66-60.41L336.5,86.95z M74.54,243.81
		c-1.24-61.07,29.36-118.39,80.78-151.35l49.63,83.66c-20.35,14.33-32.68,37.47-33.22,62.36L74.54,243.81z M338.26,391.9
		c-26.03,14.92-55.42,22.99-85.42,23.44h-1.94c-29.39,0.04-58.32-7.27-84.17-21.25l49.32-83.85c22.37,10.95,48.62,10.61,70.69-0.94
		L338.26,391.9z M324.47,346.09l-30.27-48.57c-0.91-1.4-2.32-2.39-3.95-2.76c-1.6-0.39-3.3-0.12-4.7,0.75
		c-20.91,13.16-47.41,13.54-68.69,1c-1.4-0.87-3.11-1.12-4.7-0.69c-1.62,0.42-3.01,1.45-3.89,2.88l-29.2,49.7
		c-32.52-21.24-53.74-56-57.78-94.63l57.15-3.13c1.67-0.05,3.24-0.8,4.32-2.07c1.12-1.23,1.71-2.85,1.63-4.51
		c-1.48-24.66,10.99-48.07,32.27-60.6c2.95-1.76,3.92-5.58,2.16-8.53c-0.01-0.02-0.02-0.04-0.03-0.06l-29.33-49.45
		c35.56-18.96,77.94-20.21,114.56-3.38l-26.51,50.7c-0.77,1.49-0.93,3.22-0.44,4.83c0.51,1.57,1.61,2.87,3.07,3.63
		c21.96,11.34,35.72,34.01,35.66,58.72c0,3.46,2.81,6.27,6.27,6.27h57.53C377.78,286.26,357.39,323.18,324.47,346.09z"/>
	<path class="st0" d="M250.14,197.06c-23.66,0.02-42.82,19.21-42.8,42.87c0.02,23.66,19.21,42.82,42.87,42.8
		c23.63-0.02,42.79-19.17,42.8-42.8C293,216.25,273.81,197.06,250.14,197.06z"/>
</g>
</svg>
