<?xml version="1.0" encoding="utf-8"?>
<!-- Generator: Adobe Illustrator 26.0.1, SVG Export Plug-In . SVG Version: 6.00 Build 0)  -->
<svg version="1.1" id="Layer_1" xmlns="http://www.w3.org/2000/svg" xmlns:xlink="http://www.w3.org/1999/xlink" x="0px" y="0px"
	 viewBox="0 0 500 500" style="enable-background:new 0 0 500 500;" xml:space="preserve">
<style type="text/css">
	.st0{fill:#53DC72;}
</style>
<g>
	<g>
		<path class="st0" d="M324.6,427.18c0,6.87,5.56,12.43,12.43,12.43h37.3c6.87,0,12.43-5.56,12.43-12.43v-6.22H324.6V427.18z"/>
		<path class="st0" d="M113.23,427.18c0,6.87,5.56,12.43,12.43,12.43h37.3c6.87,0,12.43-5.56,12.43-12.43v-6.22h-62.17V427.18z"/>
		<path class="st0" d="M181.62,79.04c0-3.43,2.79-6.22,6.22-6.22h161.63c3.43,0,6.22,2.79,6.22,6.22v31.08h12.43V79.04
			c0-10.28-8.37-18.65-18.65-18.65H187.83c-10.28,0-18.65,8.37-18.65,18.65v31.08h12.43V79.04z"/>
		<path class="st0" d="M113.23,253.11h43.52v-31.08H138.1c-10.28,0-18.65-8.37-18.65-18.65v-7.36c-7.22-2.57-12.43-9.41-12.43-17.51
			v-6.22H94.58v124.33h18.65V253.11z"/>
		<path class="st0" d="M231.35,203.37c0,10.28-8.37,18.65-18.65,18.65h-18.65v31.08h43.52v43.52h18.65V172.29h-12.43v6.22
			c0,8.09-5.22,14.93-12.43,17.51V203.37z"/>
		<path class="st0" d="M293.52,333.93h136.77v12.43H293.52V333.93z"/>
		<path class="st0" d="M293.52,408.53h130.55c3.43,0,6.22-2.79,6.22-6.22v-43.52H293.52V408.53z"/>
		<path class="st0" d="M274.87,147.42H75.93c-3.43,0-6.22,2.79-6.22,6.22v167.85h211.37V153.64
			C281.08,150.22,278.29,147.42,274.87,147.42z M268.65,309.06H82.15v-149.2h186.5V309.06z"/>
		<path class="st0" d="M69.72,333.93h211.37v12.43H69.72V333.93z"/>
		<path class="st0" d="M212.7,209.59c3.43,0,6.22-2.79,6.22-6.22v-6.22h-87.03v6.22c0,3.43,2.79,6.22,6.22,6.22h31.08v43.52h12.43
			v-43.52H212.7z"/>
		<path class="st0" d="M69.72,402.31c0,3.43,2.79,6.22,6.22,6.22h205.15v-49.73H69.72V402.31z"/>
		<path class="st0" d="M125.67,184.72h99.47c3.43,0,6.22-2.79,6.22-6.22v-6.22h-111.9v6.22
			C119.45,181.93,122.24,184.72,125.67,184.72z"/>
		<path class="st0" d="M330.82,159.86h62.17v12.43h-62.17V159.86z"/>
		<path class="st0" d="M343.25,122.56h37.3v24.87h-37.3V122.56z"/>
		<path class="st0" d="M107.02,122.56h111.9v12.43h-111.9V122.56z"/>
		<path class="st0" d="M424.07,184.72H293.52v136.77h136.77V190.94C430.28,187.52,427.49,184.72,424.07,184.72z M312.17,203.37
			h99.47v31.08h-33.97l-16.04-24.06l-17.88,29.8l-9.08-18.17h-22.49L312.17,203.37z M312.17,234.46h14.81l15.78,31.56l19.42-32.37
			l8.83,13.24h40.63v31.08h-99.47V234.46z M318.38,309.06h-12.43v-12.43h12.43V309.06z M343.25,309.06h-12.43v-12.43h12.43V309.06z
			 M368.12,309.06h-12.43v-12.43h12.43V309.06z M392.98,309.06h-12.43v-12.43h12.43V309.06z M417.85,309.06h-12.43v-12.43h12.43
			V309.06z"/>
	</g>
</g>
</svg>
